<svg width="25" height="22" viewBox="0 0 25 22" fill="none" xmlns="http://www.w3.org/2000/svg">
<g clip-path="url(#clip0_1_100)">
<path d="M17.8407 7.12935C18.7239 7.72469 19.5948 8.35049 20.5078 8.91076C21.0154 9.22228 21.0693 9.50564 20.7566 9.98792C20.4808 10.4125 20.346 10.634 19.7736 10.2413C17.984 9.01968 16.1863 7.80822 14.437 6.53308C13.5093 5.85744 12.5679 5.73929 11.6019 6.37755C9.74843 7.60239 7.90915 8.84707 6.06704 10.0858C5.73211 10.3105 5.34704 10.4647 5.07361 10.7743C4.89006 10.9806 4.80491 10.9012 4.66204 10.6866C3.7935 9.38334 3.7864 9.39165 5.0826 8.51294C5.78368 8.03805 6.47672 7.55163 7.19861 7.0532C7.11157 6.9752 7.05338 6.8889 6.97296 6.85752C6.54295 6.68999 6.33811 6.44724 6.34 5.93912C6.34189 5.43101 6.55619 5.20071 6.96634 4.98657C10.1009 3.36623 13.3319 3.20424 16.6509 4.358C17.0521 4.49645 17.4343 4.68798 17.8222 4.86104C18.4022 5.12272 18.6307 5.52838 18.5976 6.1888C18.5701 6.74076 18.0138 6.73799 17.8407 7.12935Z" fill="black"/>
<path d="M15.3604 12.558C15.4077 13.9019 16.0075 14.8402 17.2413 15.3442C17.4575 15.4323 17.448 15.5163 17.3529 15.6741C16.8529 16.5002 16.3467 17.3226 15.8647 18.1584C15.7445 18.3666 15.5936 18.3892 15.3878 18.3892C13.4747 18.3855 11.5617 18.3892 9.64861 18.3855C9.37896 18.3855 8.69255 17.6222 8.71525 17.3605C8.72282 17.2737 8.78621 17.24 8.86285 17.21C10.5588 16.5436 11.7902 15.2385 13.215 14.1973C13.9246 13.6767 14.6177 13.1285 15.3604 12.558Z" fill="black"/>
<path d="M11.5186 14.4779C11.8228 12.2945 10.8057 10.3304 8.09128 9.74609C8.53312 9.44057 8.93334 9.15951 9.33781 8.88538C9.75079 8.60571 10.169 8.33157 10.6454 8.0159C10.7073 8.77416 10.95 9.40827 11.5546 9.85685C11.9874 10.1799 12.4903 10.3396 13.0211 10.3027C14.0543 10.2311 14.9876 9.60718 15.1901 8.10543L17.7446 9.86331C16.2285 10.2934 15.4739 11.5801 14.3021 12.3379C13.3508 12.9508 12.5021 13.7123 11.5186 14.4779Z" fill="black"/>
<path d="M18.3099 10.6571C18.8684 10.6567 19.4043 10.8718 19.8008 11.2554C20.1973 11.639 20.4222 12.16 20.4264 12.7048C20.4302 13.776 19.4514 14.7447 18.3511 14.758C17.1997 14.7728 16.227 13.8447 16.2162 12.7223C16.214 12.4525 16.2666 12.1848 16.3708 11.9348C16.4749 11.6848 16.6287 11.4573 16.8233 11.2654C17.0178 11.0735 17.2493 10.921 17.5044 10.8166C17.7595 10.7122 18.0333 10.658 18.3099 10.6571Z" fill="black"/>
<path d="M11.5191 8.11559C11.5216 7.76058 11.6676 7.42087 11.9253 7.17027C12.1831 6.91967 12.5318 6.77843 12.8957 6.77722C13.689 6.77399 14.3244 7.38133 14.3177 8.13728C14.3111 8.88399 13.6436 9.51118 12.8744 9.49272C12.1265 9.47288 11.5153 8.85261 11.5191 8.11559Z" fill="#010101"/>
<path d="M10.7281 13.4967C10.617 11.7712 9.21434 10.478 7.57091 10.5893C5.82058 10.7083 4.51823 12.1095 4.61521 13.7737C4.70982 15.3746 6.2364 16.7153 7.82495 16.5888C9.53886 16.4536 10.8298 15.0788 10.7281 13.4967ZM7.82258 15.448C6.74589 15.4678 5.84281 14.5711 5.84991 13.4954C5.85653 12.5013 6.7246 11.6853 7.77575 11.6853C8.03285 11.6847 8.28746 11.7345 8.52448 11.8317C8.76149 11.9289 8.9761 12.0715 9.15557 12.2511C9.33504 12.4307 9.47571 12.6436 9.56926 12.8773C9.66281 13.1109 9.70733 13.3605 9.70017 13.6112C9.68362 14.5499 8.78338 15.4305 7.82258 15.448Z" fill="black"/>
<path d="M8.8373 13.5304C8.84111 13.669 8.81653 13.807 8.76501 13.9362C8.7135 14.0654 8.63607 14.1833 8.53728 14.283C8.43848 14.3827 8.3203 14.4621 8.18965 14.5167C8.05899 14.5713 7.91849 14.5999 7.77637 14.6008C7.63425 14.6018 7.49336 14.5751 7.36195 14.5223C7.23054 14.4694 7.11125 14.3916 7.01106 14.2932C6.91087 14.1949 6.8318 14.078 6.77847 13.9495C6.72514 13.821 6.69862 13.6834 6.70048 13.5447C6.70331 13.0099 7.18111 12.5294 7.7327 12.504C8.29375 12.4796 8.825 12.9725 8.8373 13.5304Z" fill="#010101"/>
</g>
<defs>
<clipPath id="clip0_1_100">
<rect width="25" height="22" fill="white"/>
</clipPath>
</defs>
</svg>
